<svg xmlns="http://www.w3.org/2000/svg" xmlns:xlink="http://www.w3.org/1999/xlink" width="500" zoomAndPan="magnify" viewBox="0 0 375 374.999991" height="500" preserveAspectRatio="xMidYMid meet" version="1.0"><defs><clipPath id="id1"><path d="M 114 112.910156 L 236 112.910156 L 236 206 L 114 206 Z M 114 112.910156 " clip-rule="nonzero"/></clipPath><clipPath id="id2"><path d="M 112.59375 116 L 262.40625 116 L 262.40625 262.160156 L 112.59375 262.160156 Z M 112.59375 116 " clip-rule="nonzero"/></clipPath></defs><path fill="rgb(100%, 100%, 100%)" d="M 234.875 148.183594 L 234.875 148.132812 C 234.863281 147.996094 234.847656 147.863281 234.828125 147.730469 L 234.808594 147.621094 C 234.792969 147.515625 234.773438 147.410156 234.75 147.308594 C 234.734375 147.230469 234.714844 147.152344 234.695312 147.070312 C 234.289062 145.507812 233.238281 144.140625 231.664062 143.117188 L 190.214844 116.210938 C 188.398438 115.03125 186.078125 114.410156 183.5 114.410156 C 179.765625 114.410156 175.972656 115.765625 173.355469 118.039062 L 120.429688 163.980469 C 117.824219 166.242188 116.667969 169.144531 117.335938 171.746094 L 117.359375 171.839844 C 117.386719 171.945312 117.417969 172.050781 117.453125 172.160156 L 117.472656 172.210938 C 117.507812 172.308594 117.542969 172.402344 117.585938 172.503906 L 117.628906 172.601562 C 117.660156 172.679688 117.695312 172.753906 117.730469 172.828125 L 117.78125 172.933594 C 117.820312 173.015625 117.863281 173.09375 117.910156 173.175781 L 117.953125 173.253906 C 118.011719 173.355469 118.074219 173.460938 118.152344 173.578125 L 118.191406 173.628906 C 118.242188 173.710938 118.300781 173.789062 118.355469 173.867188 L 118.433594 173.96875 C 118.488281 174.039062 118.542969 174.105469 118.601562 174.175781 L 118.683594 174.273438 C 118.75 174.351562 118.824219 174.433594 118.894531 174.507812 L 118.945312 174.5625 C 119.039062 174.65625 119.136719 174.75 119.234375 174.84375 L 119.324219 174.921875 C 119.398438 174.988281 119.472656 175.054688 119.550781 175.117188 L 119.664062 175.210938 C 119.742188 175.273438 119.820312 175.335938 119.902344 175.394531 L 120.011719 175.476562 C 120.128906 175.5625 120.253906 175.648438 120.378906 175.730469 L 161.839844 202.644531 C 162.019531 202.757812 162.214844 202.875 162.453125 203.003906 L 162.597656 203.082031 C 162.8125 203.195312 163.027344 203.300781 163.246094 203.394531 L 163.378906 203.453125 C 163.609375 203.546875 163.820312 203.628906 164.023438 203.699219 L 164.109375 203.730469 C 164.324219 203.804688 164.558594 203.878906 164.835938 203.953125 L 165.132812 204.027344 C 165.335938 204.078125 165.539062 204.128906 165.753906 204.167969 L 165.882812 204.191406 C 166.113281 204.234375 166.351562 204.273438 166.589844 204.304688 L 166.722656 204.324219 C 166.792969 204.332031 166.863281 204.339844 166.933594 204.34375 L 167.246094 204.371094 C 167.335938 204.382812 167.425781 204.390625 167.507812 204.394531 L 167.695312 204.40625 C 167.992188 204.425781 168.253906 204.429688 168.503906 204.433594 L 168.695312 204.429688 C 168.839844 204.429688 168.988281 204.425781 169.132812 204.417969 C 169.203125 204.417969 169.382812 204.40625 169.382812 204.40625 C 169.511719 204.402344 169.640625 204.390625 169.773438 204.382812 C 169.859375 204.375 169.949219 204.367188 170.03125 204.359375 C 170.160156 204.347656 170.289062 204.332031 170.425781 204.316406 C 170.507812 204.308594 170.589844 204.296875 170.679688 204.285156 C 170.816406 204.269531 170.953125 204.246094 171.09375 204.222656 L 171.316406 204.1875 C 171.519531 204.152344 171.726562 204.113281 171.953125 204.066406 L 172.015625 204.050781 C 172.203125 204.007812 172.386719 203.964844 172.570312 203.917969 L 172.792969 203.859375 C 172.925781 203.824219 173.0625 203.785156 173.195312 203.746094 C 173.277344 203.722656 173.359375 203.695312 173.441406 203.667969 C 173.570312 203.628906 173.695312 203.585938 173.820312 203.546875 C 173.902344 203.515625 173.984375 203.488281 174.0625 203.460938 C 174.191406 203.414062 174.320312 203.363281 174.445312 203.316406 L 174.671875 203.226562 C 174.820312 203.167969 174.964844 203.105469 175.105469 203.042969 L 175.261719 202.976562 C 175.457031 202.886719 175.648438 202.792969 175.835938 202.699219 L 175.992188 202.617188 C 176.128906 202.546875 176.265625 202.472656 176.402344 202.398438 L 176.605469 202.277344 C 176.722656 202.210938 176.839844 202.140625 176.953125 202.070312 C 177.023438 202.027344 177.09375 201.980469 177.160156 201.9375 C 177.273438 201.867188 177.382812 201.792969 177.503906 201.710938 C 177.566406 201.664062 177.628906 201.621094 177.691406 201.578125 C 177.808594 201.496094 177.921875 201.410156 178.035156 201.324219 L 178.195312 201.199219 C 178.359375 201.070312 178.523438 200.941406 178.679688 200.804688 L 231.609375 154.859375 C 231.769531 154.722656 231.921875 154.582031 232.066406 154.441406 L 232.203125 154.304688 C 232.304688 154.207031 232.398438 154.105469 232.492188 154.007812 C 232.542969 153.957031 232.589844 153.902344 232.636719 153.847656 C 232.726562 153.753906 232.808594 153.65625 232.886719 153.5625 C 232.886719 153.5625 232.984375 153.449219 233.019531 153.402344 C 233.105469 153.296875 233.1875 153.191406 233.269531 153.082031 L 233.359375 152.960938 C 233.464844 152.8125 233.570312 152.664062 233.667969 152.507812 L 233.710938 152.4375 C 233.785156 152.3125 233.859375 152.1875 233.929688 152.058594 L 234.011719 151.910156 C 234.066406 151.808594 234.117188 151.707031 234.167969 151.601562 C 234.195312 151.546875 234.21875 151.492188 234.242188 151.441406 C 234.289062 151.339844 234.332031 151.238281 234.371094 151.132812 L 234.433594 150.984375 C 234.480469 150.863281 234.519531 150.742188 234.558594 150.625 L 234.589844 150.53125 C 234.636719 150.382812 234.675781 150.230469 234.714844 150.058594 L 234.734375 149.976562 C 234.757812 149.863281 234.78125 149.746094 234.800781 149.632812 L 234.820312 149.484375 C 234.835938 149.382812 234.847656 149.285156 234.859375 149.1875 C 234.863281 149.132812 234.867188 149.082031 234.871094 149.03125 C 234.878906 148.929688 234.882812 148.828125 234.886719 148.726562 L 234.890625 148.59375 C 234.890625 148.457031 234.886719 148.316406 234.875 148.183594 " fill-opacity="1" fill-rule="nonzero"/><g clip-path="url(#id1)"><path fill="rgb(46.269226%, 88.238525%, 90.979004%)" d="M 230.632812 147.007812 C 230.632812 147.007812 222.960938 148.058594 219.441406 148.445312 C 210.753906 149.398438 205.996094 153.058594 202.664062 161.246094 C 200.460938 166.671875 198.222656 171.480469 192.011719 172.753906 C 188.628906 173.449219 185.246094 172.652344 181.863281 172.523438 C 177.097656 172.34375 172.324219 172.390625 167.558594 172.214844 C 164.121094 172.085938 160.699219 171.886719 157.28125 171.648438 L 150.847656 171.164062 C 148.730469 170.996094 146.609375 170.824219 144.484375 170.652344 C 144.484375 170.652344 123.878906 169.230469 124.117188 169.792969 C 122.777344 169.929688 121.457031 170.144531 120.1875 170.460938 C 119.914062 170.527344 119.378906 170.675781 119.378906 170.675781 C 119.378906 170.675781 118.722656 166.855469 120.730469 165.113281 L 154.703125 136.335938 L 173.78125 119.375 C 175.164062 118.175781 178.527344 117.109375 180.472656 116.652344 C 180.472656 116.652344 183.382812 115.371094 188.898438 118.375 L 229.316406 144.304688 C 231.015625 145.40625 230.632812 147.007812 230.632812 147.007812 Z M 235.570312 148.082031 C 235.570312 148.074219 235.570312 148.066406 235.570312 148.058594 C 235.558594 147.875 235.539062 147.699219 235.511719 147.519531 C 235.507812 147.472656 235.496094 147.425781 235.492188 147.378906 C 235.46875 147.25 235.445312 147.121094 235.417969 146.992188 C 235.394531 146.890625 235.371094 146.792969 235.347656 146.691406 C 234.859375 144.832031 233.640625 143.132812 231.679688 141.859375 L 196.1875 118.820312 L 193.777344 117.253906 L 190.230469 114.953125 C 188.109375 113.574219 185.449219 112.910156 182.699219 112.910156 C 178.742188 112.910156 174.589844 114.289062 171.574219 116.90625 L 118.648438 162.847656 C 115.484375 165.59375 114.300781 169.070312 115.085938 172.117188 C 115.09375 172.160156 115.105469 172.195312 115.117188 172.238281 C 115.152344 172.375 115.195312 172.515625 115.242188 172.652344 C 115.25 172.667969 115.253906 172.683594 115.261719 172.699219 C 115.300781 172.820312 115.347656 172.945312 115.398438 173.066406 C 115.414062 173.105469 115.433594 173.148438 115.453125 173.191406 C 115.492188 173.285156 115.535156 173.378906 115.578125 173.472656 C 115.601562 173.519531 115.621094 173.5625 115.644531 173.609375 C 115.695312 173.707031 115.75 173.808594 115.804688 173.90625 C 115.820312 173.9375 115.839844 173.972656 115.855469 174.003906 C 115.929688 174.132812 116.007812 174.257812 116.09375 174.386719 C 116.113281 174.414062 116.132812 174.441406 116.152344 174.46875 C 116.21875 174.566406 116.285156 174.664062 116.355469 174.761719 C 116.386719 174.800781 116.417969 174.84375 116.449219 174.882812 C 116.515625 174.96875 116.585938 175.050781 116.652344 175.136719 C 116.6875 175.175781 116.71875 175.214844 116.753906 175.253906 C 116.839844 175.351562 116.925781 175.449219 117.015625 175.542969 C 117.035156 175.5625 117.054688 175.585938 117.074219 175.605469 C 117.183594 175.71875 117.300781 175.832031 117.417969 175.941406 C 117.453125 175.972656 117.488281 176.003906 117.523438 176.03125 C 117.609375 176.113281 117.699219 176.191406 117.792969 176.269531 C 117.835938 176.304688 117.882812 176.339844 117.925781 176.378906 C 118.019531 176.449219 118.113281 176.523438 118.207031 176.59375 C 118.25 176.625 118.292969 176.660156 118.335938 176.691406 C 118.476562 176.789062 118.617188 176.890625 118.765625 176.984375 L 160.214844 203.890625 C 160.21875 203.894531 160.226562 203.898438 160.230469 203.898438 C 160.460938 204.050781 160.699219 204.1875 160.941406 204.320312 C 160.996094 204.351562 161.050781 204.378906 161.101562 204.40625 C 161.34375 204.535156 161.589844 204.652344 161.84375 204.765625 C 161.894531 204.789062 161.945312 204.808594 162 204.828125 C 162.242188 204.933594 162.484375 205.027344 162.734375 205.117188 C 162.765625 205.125 162.792969 205.136719 162.824219 205.148438 C 163.089844 205.238281 163.363281 205.320312 163.640625 205.394531 C 163.703125 205.414062 163.765625 205.429688 163.832031 205.449219 C 163.878906 205.460938 163.925781 205.46875 163.972656 205.480469 C 164.203125 205.535156 164.429688 205.59375 164.660156 205.636719 C 164.710938 205.648438 164.761719 205.65625 164.8125 205.664062 C 165.070312 205.710938 165.335938 205.753906 165.601562 205.789062 C 165.648438 205.796875 165.695312 205.804688 165.742188 205.808594 C 165.882812 205.828125 166.023438 205.835938 166.164062 205.847656 C 166.3125 205.863281 166.460938 205.878906 166.613281 205.890625 C 166.679688 205.894531 166.746094 205.898438 166.816406 205.902344 C 167.113281 205.917969 167.40625 205.929688 167.707031 205.929688 C 167.777344 205.929688 167.84375 205.925781 167.914062 205.925781 C 168.074219 205.925781 168.234375 205.921875 168.390625 205.917969 C 168.484375 205.914062 168.574219 205.90625 168.664062 205.902344 C 168.808594 205.894531 168.949219 205.886719 169.089844 205.875 C 169.1875 205.867188 169.28125 205.859375 169.375 205.847656 C 169.515625 205.835938 169.65625 205.820312 169.800781 205.804688 C 169.890625 205.792969 169.984375 205.78125 170.078125 205.769531 C 170.230469 205.75 170.378906 205.726562 170.53125 205.703125 C 170.613281 205.6875 170.691406 205.675781 170.773438 205.664062 C 171 205.625 171.222656 205.582031 171.449219 205.535156 C 171.480469 205.527344 171.507812 205.519531 171.539062 205.511719 C 171.742188 205.46875 171.941406 205.421875 172.140625 205.371094 C 172.222656 205.347656 172.300781 205.328125 172.382812 205.304688 C 172.53125 205.265625 172.679688 205.222656 172.824219 205.179688 C 172.914062 205.152344 173.003906 205.125 173.09375 205.097656 C 173.230469 205.054688 173.367188 205.007812 173.507812 204.960938 C 173.597656 204.929688 173.683594 204.902344 173.773438 204.871094 C 173.914062 204.820312 174.050781 204.765625 174.191406 204.710938 C 174.273438 204.679688 174.355469 204.648438 174.4375 204.617188 C 174.597656 204.550781 174.757812 204.480469 174.914062 204.410156 C 174.972656 204.386719 175.03125 204.363281 175.085938 204.339844 C 175.296875 204.242188 175.507812 204.140625 175.714844 204.035156 C 175.773438 204.003906 175.828125 203.976562 175.882812 203.945312 C 176.035156 203.867188 176.1875 203.785156 176.335938 203.703125 C 176.410156 203.660156 176.488281 203.617188 176.5625 203.570312 C 176.691406 203.496094 176.820312 203.417969 176.945312 203.339844 C 177.023438 203.292969 177.101562 203.242188 177.175781 203.195312 C 177.300781 203.113281 177.421875 203.03125 177.542969 202.949219 C 177.617188 202.898438 177.691406 202.847656 177.761719 202.796875 C 177.890625 202.707031 178.015625 202.609375 178.144531 202.515625 C 178.203125 202.46875 178.265625 202.425781 178.324219 202.378906 C 178.507812 202.234375 178.6875 202.085938 178.863281 201.933594 L 220.488281 165.800781 L 231.789062 155.992188 C 231.792969 155.992188 231.792969 155.988281 231.792969 155.988281 C 231.972656 155.835938 232.140625 155.679688 232.304688 155.519531 C 232.359375 155.46875 232.410156 155.417969 232.460938 155.367188 C 232.574219 155.257812 232.679688 155.144531 232.785156 155.03125 C 232.84375 154.972656 232.898438 154.910156 232.953125 154.851562 C 233.050781 154.742188 233.144531 154.632812 233.238281 154.523438 C 233.289062 154.464844 233.339844 154.402344 233.386719 154.34375 C 233.484375 154.222656 233.578125 154.097656 233.671875 153.976562 C 233.707031 153.929688 233.742188 153.878906 233.777344 153.832031 C 233.902344 153.660156 234.019531 153.488281 234.128906 153.3125 C 234.148438 153.285156 234.164062 153.257812 234.183594 153.226562 C 234.273438 153.082031 234.359375 152.933594 234.441406 152.785156 C 234.472656 152.726562 234.503906 152.667969 234.535156 152.609375 C 234.601562 152.488281 234.660156 152.371094 234.71875 152.246094 C 234.75 152.183594 234.78125 152.121094 234.808594 152.054688 C 234.863281 151.933594 234.914062 151.8125 234.964844 151.691406 C 234.988281 151.632812 235.011719 151.570312 235.035156 151.511719 C 235.089844 151.367188 235.140625 151.222656 235.1875 151.078125 C 235.199219 151.042969 235.210938 151.007812 235.222656 150.96875 C 235.277344 150.789062 235.328125 150.605469 235.371094 150.421875 C 235.378906 150.382812 235.386719 150.339844 235.398438 150.296875 C 235.429688 150.15625 235.457031 150.015625 235.480469 149.875 C 235.488281 149.816406 235.496094 149.757812 235.507812 149.695312 C 235.523438 149.570312 235.539062 149.449219 235.550781 149.324219 C 235.558594 149.261719 235.5625 149.199219 235.566406 149.136719 C 235.574219 149.011719 235.582031 148.882812 235.582031 148.757812 C 235.585938 148.703125 235.589844 148.648438 235.589844 148.59375 C 235.585938 148.421875 235.582031 148.253906 235.570312 148.082031 " fill-opacity="1" fill-rule="nonzero"/></g><g clip-path="url(#id2)"><path fill="rgb(21.958923%, 32.548523%, 63.139343%)" d="M 258.820312 167.972656 C 258.585938 170.566406 258.050781 173.394531 257.195312 176.441406 C 255.425781 182.746094 252.445312 189.433594 248.578125 196.144531 C 244.730469 202.824219 239.980469 209.566406 234.628906 216.011719 C 231.324219 219.996094 227.777344 223.878906 224.058594 227.582031 C 219.640625 230.457031 215.445312 231.296875 211.648438 232.058594 C 208.820312 232.625 206.144531 233.160156 203.902344 234.492188 C 198.105469 237.898438 190.683594 240.816406 190.105469 241.011719 C 190.078125 241.015625 190.046875 241.027344 190.019531 241.035156 C 184.394531 243.179688 178.378906 242.855469 173.929688 240.171875 C 171.132812 238.480469 169.34375 236.023438 169.027344 233.425781 L 168.953125 232.964844 C 168.121094 226.40625 173.203125 219.011719 180.53125 216.152344 L 180.511719 216.109375 C 182.308594 215.664062 188.460938 212.683594 190.78125 211.316406 C 193.207031 209.882812 194.363281 207.207031 195.582031 204.375 C 196.632812 201.941406 195.945312 197.351562 197.710938 194.671875 L 233.519531 163.585938 C 236.613281 160.902344 237.816406 157.511719 237.132812 154.511719 L 235.871094 148.972656 C 240.421875 148.539062 250.851562 148.652344 257.691406 157.3125 C 258.105469 158.40625 258.421875 159.585938 258.632812 160.855469 C 258.988281 162.984375 259.058594 165.359375 258.820312 167.972656 Z M 219.703125 231.757812 C 218.867188 232.53125 218.027344 233.292969 217.175781 234.042969 C 217.105469 234.105469 217.035156 234.171875 216.964844 234.234375 C 210.597656 239.84375 203.855469 244.855469 197.023438 248.894531 C 196.128906 249.421875 195.246094 249.921875 194.371094 250.402344 C 193.90625 250.660156 193.445312 250.910156 192.984375 251.152344 C 190.167969 252.644531 187.445312 253.90625 184.847656 254.921875 C 180.992188 256.429688 177.394531 257.417969 174.109375 257.902344 C 174.023438 257.914062 173.9375 257.921875 173.851562 257.9375 C 173.539062 257.980469 173.226562 258.023438 172.914062 258.058594 C 172.761719 258.074219 172.609375 258.085938 172.457031 258.101562 C 172.21875 258.125 171.980469 258.148438 171.746094 258.164062 C 171.582031 258.175781 171.421875 258.183594 171.257812 258.195312 C 171.039062 258.207031 170.820312 258.222656 170.605469 258.230469 C 170.4375 258.234375 170.277344 258.234375 170.113281 258.238281 C 169.90625 258.242188 169.703125 258.246094 169.5 258.246094 C 169.273438 258.246094 169.050781 258.238281 168.828125 258.230469 C 168.675781 258.226562 168.519531 258.222656 168.367188 258.214844 C 168.128906 258.203125 167.898438 258.1875 167.667969 258.167969 C 167.535156 258.15625 167.398438 258.148438 167.265625 258.136719 C 167.007812 258.113281 166.753906 258.078125 166.5 258.046875 C 166.398438 258.03125 166.296875 258.023438 166.195312 258.007812 C 165.847656 257.953125 165.5 257.894531 165.164062 257.824219 C 164.683594 257.726562 164.222656 257.605469 163.769531 257.476562 C 157.78125 253.375 155.527344 244.359375 155.527344 236.230469 C 155.527344 234.042969 156.054688 231.484375 156.863281 228.835938 C 158.113281 228.328125 159.386719 227.773438 160.679688 227.164062 C 162.238281 226.425781 163.832031 225.617188 165.449219 224.734375 C 167.574219 223.578125 169.6875 222.316406 171.78125 220.976562 C 168.792969 224.566406 167.171875 228.996094 167.695312 233.144531 L 167.773438 233.605469 C 168.132812 236.566406 170.140625 239.367188 173.277344 241.257812 C 178.054688 244.144531 184.484375 244.503906 190.46875 242.222656 L 190.457031 242.179688 C 192.34375 241.675781 200.089844 238.203125 204.542969 235.585938 C 206.605469 234.363281 209.058594 233.871094 211.898438 233.304688 C 214.542969 232.773438 217.550781 232.167969 220.730469 230.792969 C 220.386719 231.117188 220.046875 231.4375 219.703125 231.757812 Z M 153.015625 251.988281 C 153.023438 252.007812 153.027344 252.023438 153.035156 252.042969 C 153.027344 252.023438 153.023438 252.003906 153.015625 251.988281 C 147.167969 247.175781 140.550781 241.328125 140.550781 241.328125 L 140.554688 241.324219 L 120.171875 223.769531 C 119.898438 223.53125 119.628906 223.28125 119.375 223.023438 C 119.097656 222.742188 118.816406 222.425781 118.484375 222.023438 C 118.039062 221.476562 117.660156 220.945312 117.328125 220.398438 C 116.515625 219.066406 115.882812 217.550781 115.4375 215.886719 C 115.207031 215.027344 115.023438 214.109375 114.890625 213.167969 C 114.824219 212.6875 114.769531 212.191406 114.730469 211.691406 C 114.691406 211.1875 114.664062 210.664062 114.648438 210.140625 C 114.632812 209.605469 114.632812 209.054688 114.644531 208.5 C 114.671875 207.378906 114.757812 206.199219 114.894531 205 C 114.964844 204.390625 115.054688 203.761719 115.152344 203.136719 C 115.417969 201.464844 115.789062 199.722656 116.25 197.957031 C 116.480469 197.082031 116.742188 196.183594 117.019531 195.289062 C 118.050781 191.96875 119.421875 188.5 121.089844 184.964844 L 161.945312 211.488281 C 161.960938 211.496094 161.976562 211.503906 161.992188 211.515625 C 159.28125 216.425781 153.207031 228.300781 153.207031 236.230469 C 153.207031 243.96875 155.171875 252.457031 160.210938 257.515625 C 158.582031 256.46875 155.894531 254.355469 153.015625 251.988281 Z M 155.679688 256.796875 C 155.671875 256.789062 155.664062 256.777344 155.65625 256.769531 C 155.675781 256.792969 155.695312 256.816406 155.71875 256.839844 C 155.707031 256.824219 155.691406 256.8125 155.679688 256.796875 Z M 154.574219 255.277344 C 154.574219 255.277344 154.570312 255.277344 154.570312 255.277344 C 154.570312 255.273438 154.566406 255.269531 154.566406 255.265625 C 154.683594 255.453125 154.808594 255.640625 154.933594 255.820312 C 154.808594 255.644531 154.691406 255.464844 154.574219 255.277344 Z M 154.292969 254.8125 C 154.277344 254.785156 154.257812 254.757812 154.242188 254.726562 C 154.039062 254.371094 153.847656 254 153.671875 253.617188 C 153.667969 253.617188 153.667969 253.617188 153.667969 253.613281 C 153.632812 253.535156 153.601562 253.453125 153.566406 253.375 C 153.621094 253.503906 153.679688 253.636719 153.742188 253.761719 C 153.769531 253.824219 153.800781 253.882812 153.828125 253.941406 C 153.914062 254.113281 154 254.28125 154.089844 254.449219 C 154.121094 254.503906 154.152344 254.5625 154.183594 254.621094 C 154.289062 254.804688 154.394531 254.988281 154.503906 255.164062 C 154.433594 255.050781 154.363281 254.933594 154.292969 254.8125 Z M 153.332031 252.839844 C 153.304688 252.769531 153.277344 252.703125 153.25 252.632812 C 153.234375 252.59375 153.222656 252.554688 153.207031 252.515625 C 153.257812 252.648438 153.308594 252.78125 153.363281 252.910156 C 153.351562 252.886719 153.34375 252.863281 153.332031 252.839844 Z M 257.882812 154.003906 C 257.882812 154.003906 257.878906 154 257.875 153.996094 C 257.871094 153.996094 257.871094 153.992188 257.867188 153.988281 C 257.875 153.996094 257.882812 154.003906 257.882812 154.003906 Z M 261.992188 159.390625 C 261.183594 155.019531 259.207031 151.660156 256.195312 149.441406 C 256.191406 149.4375 256.191406 149.433594 256.1875 149.433594 L 216.003906 119.769531 C 215.109375 119.109375 214.132812 118.53125 213.078125 118.039062 C 212.960938 117.984375 212.839844 117.9375 212.722656 117.882812 C 211.773438 117.464844 210.765625 117.113281 209.699219 116.835938 C 209.699219 116.835938 209.699219 116.835938 209.695312 116.835938 C 209.6875 116.835938 209.683594 116.832031 209.675781 116.832031 C 209.125 116.691406 208.558594 116.570312 207.980469 116.46875 C 207.792969 116.433594 207.601562 116.410156 207.410156 116.382812 C 207 116.316406 206.582031 116.261719 206.152344 116.21875 C 205.929688 116.195312 205.703125 116.175781 205.472656 116.15625 C 205.058594 116.125 204.632812 116.101562 204.203125 116.085938 C 203.972656 116.078125 203.746094 116.070312 203.511719 116.066406 C 203.394531 116.066406 203.285156 116.058594 203.164062 116.058594 C 203.058594 116.058594 202.949219 116.058594 202.839844 116.0625 C 202.757812 116.0625 202.675781 116.0625 202.59375 116.066406 C 202.265625 116.070312 201.933594 116.078125 201.597656 116.09375 C 201.191406 116.113281 200.78125 116.140625 200.363281 116.175781 C 200.351562 116.175781 200.339844 116.179688 200.328125 116.179688 C 199.972656 116.210938 199.613281 116.242188 199.25 116.285156 C 198.875 116.324219 198.5 116.371094 198.117188 116.425781 C 197.753906 116.476562 197.386719 116.535156 197.015625 116.59375 C 196.917969 116.613281 196.816406 116.628906 196.714844 116.648438 C 196.433594 116.695312 196.152344 116.746094 195.867188 116.800781 C 195.761719 116.824219 195.65625 116.84375 195.550781 116.863281 C 195.175781 116.9375 194.796875 117.019531 194.414062 117.101562 C 194.207031 117.152344 193.988281 117.203125 193.777344 117.253906 L 196.1875 118.820312 C 196.9375 118.675781 197.675781 118.546875 198.398438 118.449219 C 199.101562 118.347656 199.816406 118.269531 200.527344 118.210938 C 200.921875 118.179688 201.308594 118.152344 201.695312 118.136719 C 202.191406 118.109375 202.683594 118.097656 203.164062 118.097656 C 203.203125 118.097656 203.238281 118.101562 203.273438 118.101562 C 203.34375 118.105469 203.417969 118.109375 203.492188 118.109375 C 203.667969 118.109375 203.839844 118.117188 204.015625 118.121094 L 204.132812 118.125 C 204.546875 118.140625 204.945312 118.164062 205.316406 118.191406 C 205.527344 118.207031 205.738281 118.226562 205.945312 118.246094 C 206.296875 118.285156 206.675781 118.332031 207.101562 118.398438 L 207.324219 118.429688 C 207.421875 118.445312 207.523438 118.460938 207.621094 118.476562 C 208.210938 118.582031 208.722656 118.691406 209.1875 118.8125 L 209.242188 118.824219 C 210.292969 119.101562 211.296875 119.460938 212.21875 119.890625 C 213.140625 120.320312 214.007812 120.832031 214.796875 121.414062 L 243.242188 142.410156 C 243.3125 142.457031 243.382812 142.496094 243.453125 142.546875 C 244.351562 143.179688 245.441406 143.996094 246.609375 144.898438 L 247.5 145.554688 C 247.488281 145.558594 247.476562 145.558594 247.460938 145.558594 C 249.628906 147.246094 251.976562 149.144531 253.898438 150.714844 C 247.011719 146.210938 239.183594 146.296875 235.429688 146.683594 C 235.402344 146.6875 235.375 146.691406 235.347656 146.691406 C 235.371094 146.792969 235.394531 146.890625 235.417969 146.992188 C 235.445312 147.121094 235.46875 147.25 235.488281 147.378906 C 235.496094 147.425781 235.507812 147.472656 235.511719 147.519531 C 235.539062 147.699219 235.558594 147.875 235.570312 148.058594 C 235.570312 148.066406 235.570312 148.074219 235.570312 148.082031 C 235.582031 148.253906 235.585938 148.421875 235.585938 148.59375 C 235.585938 148.648438 235.582031 148.703125 235.582031 148.757812 C 235.582031 148.882812 235.574219 149.011719 235.566406 149.136719 C 235.5625 149.199219 235.554688 149.261719 235.550781 149.328125 C 235.539062 149.449219 235.523438 149.570312 235.503906 149.695312 C 235.496094 149.757812 235.488281 149.816406 235.480469 149.878906 C 235.457031 150.019531 235.425781 150.15625 235.394531 150.296875 C 235.386719 150.339844 235.378906 150.382812 235.371094 150.425781 C 235.328125 150.605469 235.277344 150.789062 235.222656 150.96875 C 235.210938 151.007812 235.195312 151.042969 235.183594 151.082031 C 235.136719 151.222656 235.089844 151.367188 235.035156 151.511719 C 235.011719 151.574219 234.984375 151.632812 234.960938 151.695312 C 234.914062 151.816406 234.863281 151.933594 234.808594 152.054688 C 234.777344 152.121094 234.75 152.183594 234.71875 152.25 C 234.660156 152.371094 234.597656 152.488281 234.535156 152.609375 C 234.503906 152.667969 234.472656 152.730469 234.441406 152.789062 C 234.359375 152.933594 234.273438 153.082031 234.179688 153.226562 C 234.164062 153.257812 234.148438 153.285156 234.128906 153.316406 C 234.019531 153.488281 233.898438 153.660156 233.777344 153.832031 C 233.742188 153.882812 233.707031 153.929688 233.667969 153.976562 C 233.578125 154.101562 233.484375 154.222656 233.386719 154.34375 C 233.335938 154.40625 233.285156 154.464844 233.234375 154.523438 C 233.144531 154.632812 233.050781 154.742188 232.949219 154.851562 C 232.898438 154.914062 232.839844 154.972656 232.785156 155.03125 C 232.679688 155.144531 232.570312 155.257812 232.460938 155.367188 C 232.40625 155.417969 232.359375 155.46875 232.304688 155.519531 C 232.140625 155.679688 231.96875 155.835938 231.792969 155.992188 C 231.789062 155.992188 231.789062 155.992188 231.789062 155.992188 L 220.488281 165.800781 L 178.863281 201.933594 C 178.6875 202.085938 178.503906 202.234375 178.324219 202.378906 C 178.261719 202.425781 178.203125 202.46875 178.140625 202.515625 C 178.015625 202.613281 177.890625 202.707031 177.761719 202.796875 C 177.6875 202.851562 177.613281 202.898438 177.542969 202.949219 C 177.421875 203.035156 177.300781 203.117188 177.175781 203.195312 C 177.097656 203.246094 177.023438 203.292969 176.945312 203.339844 C 176.816406 203.421875 176.6875 203.496094 176.558594 203.570312 C 176.484375 203.617188 176.410156 203.660156 176.335938 203.703125 C 176.1875 203.785156 176.035156 203.867188 175.882812 203.945312 C 175.828125 203.976562 175.773438 204.007812 175.714844 204.035156 C 175.507812 204.140625 175.296875 204.242188 175.085938 204.339844 C 175.027344 204.363281 174.972656 204.386719 174.914062 204.414062 C 174.753906 204.480469 174.59375 204.550781 174.433594 204.617188 C 174.351562 204.648438 174.269531 204.679688 174.1875 204.710938 C 174.050781 204.765625 173.910156 204.820312 173.769531 204.871094 C 173.683594 204.902344 173.59375 204.933594 173.503906 204.964844 C 173.367188 205.011719 173.230469 205.054688 173.089844 205.097656 C 173.003906 205.128906 172.914062 205.152344 172.824219 205.179688 C 172.675781 205.226562 172.53125 205.265625 172.382812 205.304688 C 172.300781 205.328125 172.222656 205.351562 172.140625 205.371094 C 171.941406 205.421875 171.742188 205.46875 171.539062 205.511719 C 171.507812 205.519531 171.476562 205.527344 171.445312 205.535156 C 171.222656 205.582031 170.996094 205.625 170.773438 205.664062 C 170.691406 205.679688 170.609375 205.691406 170.53125 205.703125 C 170.378906 205.726562 170.226562 205.75 170.078125 205.769531 C 169.984375 205.78125 169.890625 205.792969 169.796875 205.804688 C 169.65625 205.824219 169.515625 205.835938 169.375 205.851562 C 169.28125 205.859375 169.183594 205.867188 169.089844 205.875 C 168.945312 205.886719 168.804688 205.894531 168.664062 205.902344 C 168.574219 205.90625 168.484375 205.914062 168.390625 205.917969 C 168.230469 205.921875 168.074219 205.925781 167.914062 205.925781 C 167.84375 205.929688 167.773438 205.929688 167.703125 205.929688 C 167.40625 205.929688 167.109375 205.917969 166.816406 205.902344 C 166.746094 205.898438 166.679688 205.894531 166.609375 205.890625 C 166.460938 205.882812 166.3125 205.863281 166.164062 205.847656 C 166.164062 205.851562 166.160156 205.851562 166.160156 205.855469 C 166.160156 205.851562 166.160156 205.851562 166.164062 205.847656 C 166.023438 205.835938 165.878906 205.828125 165.742188 205.808594 C 165.695312 205.804688 165.648438 205.796875 165.597656 205.789062 C 165.332031 205.753906 165.070312 205.714844 164.808594 205.664062 C 164.757812 205.65625 164.710938 205.648438 164.660156 205.640625 C 164.429688 205.59375 164.199219 205.539062 163.972656 205.480469 C 163.972656 205.484375 163.96875 205.484375 163.96875 205.488281 C 163.921875 205.476562 163.875 205.460938 163.828125 205.449219 C 163.765625 205.429688 163.703125 205.414062 163.636719 205.398438 C 163.363281 205.320312 163.089844 205.242188 162.824219 205.148438 C 162.792969 205.140625 162.765625 205.128906 162.734375 205.117188 C 162.484375 205.027344 162.238281 204.933594 162 204.832031 C 161.945312 204.808594 161.894531 204.789062 161.839844 204.765625 C 161.589844 204.652344 161.34375 204.535156 161.101562 204.40625 C 161.046875 204.378906 160.996094 204.351562 160.941406 204.320312 C 160.699219 204.1875 160.460938 204.050781 160.226562 203.902344 C 160.222656 203.898438 160.21875 203.894531 160.214844 203.890625 L 118.761719 176.984375 C 118.617188 176.890625 118.472656 176.792969 118.335938 176.691406 C 118.292969 176.660156 118.25 176.625 118.207031 176.59375 C 118.113281 176.523438 118.015625 176.453125 117.925781 176.378906 C 117.882812 176.34375 117.835938 176.304688 117.792969 176.269531 C 117.699219 176.191406 117.609375 176.113281 117.519531 176.035156 C 117.488281 176.003906 117.449219 175.972656 117.417969 175.941406 C 117.296875 175.832031 117.183594 175.71875 117.074219 175.605469 C 117.050781 175.585938 117.035156 175.5625 117.015625 175.542969 C 116.925781 175.449219 116.835938 175.351562 116.75 175.253906 C 116.71875 175.214844 116.683594 175.175781 116.652344 175.136719 C 116.582031 175.054688 116.515625 174.96875 116.449219 174.882812 C 116.417969 174.84375 116.386719 174.800781 116.355469 174.761719 C 116.285156 174.664062 116.214844 174.566406 116.148438 174.46875 C 116.128906 174.441406 116.109375 174.414062 116.089844 174.386719 C 116.007812 174.261719 115.929688 174.132812 115.855469 174.003906 C 115.835938 173.972656 115.820312 173.9375 115.800781 173.90625 C 115.746094 173.808594 115.695312 173.707031 115.644531 173.609375 C 115.621094 173.5625 115.601562 173.519531 115.578125 173.472656 C 115.535156 173.378906 115.492188 173.285156 115.449219 173.191406 C 115.433594 173.148438 115.414062 173.105469 115.394531 173.066406 C 115.347656 172.945312 115.300781 172.820312 115.257812 172.699219 C 115.253906 172.683594 115.246094 172.671875 115.242188 172.65625 C 115.195312 172.515625 115.152344 172.378906 115.113281 172.238281 C 115.105469 172.199219 115.09375 172.160156 115.085938 172.121094 C 115.066406 172.054688 115.050781 171.988281 115.035156 171.921875 L 116.765625 179.515625 C 117.125 181.089844 118.003906 182.558594 119.402344 183.761719 C 119.25 184.074219 119.101562 184.390625 118.957031 184.703125 C 118.4375 185.820312 117.949219 186.9375 117.488281 188.046875 C 116.558594 190.285156 115.746094 192.503906 115.070312 194.683594 C 114.78125 195.609375 114.519531 196.527344 114.277344 197.441406 C 113.796875 199.261719 113.417969 201.058594 113.136719 202.816406 C 113.03125 203.476562 112.941406 204.125 112.867188 204.765625 C 112.816406 205.222656 112.773438 205.671875 112.734375 206.117188 C 112.667969 206.914062 112.625 207.695312 112.605469 208.453125 C 112.59375 209.035156 112.59375 209.601562 112.605469 210.15625 C 112.605469 210.171875 112.605469 210.183594 112.605469 210.195312 C 112.625 210.761719 112.652344 211.3125 112.695312 211.855469 C 112.742188 212.398438 112.796875 212.929688 112.871094 213.449219 C 113.011719 214.484375 113.210938 215.476562 113.464844 216.417969 C 113.964844 218.289062 114.675781 219.972656 115.582031 221.460938 C 115.585938 221.464844 115.589844 221.46875 115.59375 221.472656 C 115.992188 222.125 116.433594 222.738281 116.90625 223.3125 C 117.222656 223.703125 117.550781 224.078125 117.898438 224.433594 C 117.910156 224.445312 117.917969 224.453125 117.925781 224.460938 C 118.21875 224.757812 118.527344 225.042969 118.84375 225.316406 L 157.230469 258.382812 L 157.230469 258.378906 C 157.226562 258.378906 157.226562 258.378906 157.222656 258.375 C 157.117188 258.285156 157.011719 258.1875 156.90625 258.089844 C 156.8125 258 156.71875 257.910156 156.625 257.820312 C 156.734375 257.925781 156.84375 258.035156 156.957031 258.136719 C 157.007812 258.183594 157.0625 258.230469 157.113281 258.273438 C 158.621094 259.605469 160.429688 260.601562 162.503906 261.25 C 166.644531 262.546875 171.839844 262.46875 177.828125 260.96875 C 183.722656 259.496094 190.394531 256.648438 197.617188 252.367188 C 204.746094 248.140625 211.785156 242.890625 218.429688 237.015625 C 225.03125 231.183594 231.277344 224.695312 236.871094 217.9375 C 242.460938 211.183594 247.425781 204.117188 251.457031 197.109375 C 255.507812 190.0625 258.636719 183.039062 260.507812 176.402344 C 262.402344 169.691406 262.84375 163.976562 261.992188 159.390625 " fill-opacity="1" fill-rule="nonzero"/></g><path fill="rgb(21.958923%, 32.548523%, 63.139343%)" d="M 256.195312 149.4375 L 256.199219 149.441406 Z M 256.195312 149.4375 " fill-opacity="1" fill-rule="nonzero"/><path fill="rgb(21.958923%, 32.548523%, 63.139343%)" d="M 194.597656 228.363281 C 193.84375 230.8125 191.644531 233.042969 188.710938 234.332031 C 184.289062 236.285156 180.09375 235.355469 178.238281 233.429688 C 177.75 232.929688 177.410156 232.355469 177.21875 231.726562 C 176.210938 228.429688 178.820312 224.464844 183.289062 222.507812 C 187.617188 220.628906 192.367188 221.390625 194.207031 224.320312 C 194.910156 225.445312 195.050781 226.882812 194.597656 228.363281 Z M 194.4375 222.570312 C 191.878906 219.921875 187.195312 219.429688 182.78125 221.34375 C 177.722656 223.5625 174.8125 228.1875 176.007812 232.097656 C 176.253906 232.917969 176.699219 233.664062 177.324219 234.3125 C 179.886719 236.96875 184.777344 237.453125 189.222656 235.492188 C 192.488281 234.058594 194.949219 231.53125 195.808594 228.734375 C 196.371094 226.894531 196.183594 225.089844 195.277344 223.648438 C 195.039062 223.261719 194.753906 222.902344 194.4375 222.570312 " fill-opacity="1" fill-rule="nonzero"/><path fill="rgb(21.958923%, 32.548523%, 63.139343%)" d="M 249.90625 179.628906 C 249.339844 187.621094 236.710938 207.316406 236.582031 207.515625 C 235.160156 208.996094 233.71875 209.625 231.992188 210.066406 C 230.328125 210.507812 229.261719 209.640625 227.785156 208.441406 L 215.179688 198.152344 C 213.507812 196.796875 212.347656 195.855469 212.246094 194.332031 C 212.058594 192.582031 212.21875 191.128906 213.558594 189.214844 L 213.9375 188.664062 C 215.289062 187.5 219.394531 183.519531 227.527344 172.242188 C 232.332031 165.582031 237.289062 165.617188 240.605469 166.820312 C 246.207031 168.847656 250.203125 175.371094 249.90625 179.628906 Z M 241 165.726562 C 237.980469 164.632812 232.089844 163.933594 226.585938 171.566406 C 222.453125 177.296875 219.367188 181.121094 217.167969 183.640625 C 215.691406 184.378906 214.308594 185.605469 213.09375 187.296875 C 213.082031 187.308594 213.070312 187.320312 213.058594 187.339844 L 212.347656 188.371094 C 210.980469 190.324219 210.523438 192.085938 210.773438 194.457031 C 210.917969 196.597656 212.433594 197.824219 214.191406 199.25 L 226.855469 209.585938 C 228.390625 210.835938 229.980469 212.128906 232.363281 211.492188 C 234.851562 210.859375 236.945312 209.820312 239.0625 206.800781 C 239.355469 206.382812 239.644531 205.964844 239.925781 205.539062 C 239.929688 205.539062 239.929688 205.539062 239.929688 205.535156 C 240.347656 204.988281 240.957031 203.796875 241.175781 203.304688 C 241.554688 202.449219 241.839844 201.59375 242.035156 200.753906 C 245.828125 194.175781 250.699219 184.835938 251.0625 179.710938 C 251.398438 174.953125 247.164062 167.960938 241 165.726562 " fill-opacity="1" fill-rule="nonzero"/><path fill="rgb(21.958923%, 32.548523%, 63.139343%)" d="M 121.597656 166.246094 L 174.523438 120.304688 C 176.613281 118.496094 179.667969 117.414062 182.703125 117.414062 C 184.667969 117.414062 186.472656 117.882812 187.78125 118.730469 L 229.230469 145.636719 C 229.714844 145.949219 230.257812 146.402344 230.632812 147.007812 C 230.875 147.398438 231.046875 147.847656 231.082031 148.367188 C 231.175781 149.734375 230.359375 151.273438 228.839844 152.59375 L 175.914062 198.535156 C 173.824219 200.347656 170.765625 201.429688 167.734375 201.429688 C 165.769531 201.429688 163.96875 200.964844 162.664062 200.117188 L 121.214844 173.210938 C 120.460938 172.71875 119.550781 171.890625 119.378906 170.675781 C 119.371094 170.609375 119.363281 170.542969 119.355469 170.472656 C 119.261719 169.105469 120.078125 167.566406 121.597656 166.246094 Z M 120.101562 174.921875 L 161.554688 201.828125 C 163.183594 202.886719 165.378906 203.46875 167.734375 203.46875 C 171.246094 203.46875 174.800781 202.203125 177.25 200.078125 L 230.179688 154.132812 C 232.1875 152.390625 233.257812 150.238281 233.117188 148.222656 C 232.996094 146.511719 232.039062 145.027344 230.34375 143.925781 L 188.890625 117.015625 C 187.257812 115.957031 185.058594 115.371094 182.703125 115.371094 C 179.191406 115.371094 175.632812 116.640625 173.1875 118.765625 L 120.257812 164.707031 C 118.253906 166.449219 117.179688 168.601562 117.320312 170.613281 C 117.441406 172.328125 118.402344 173.816406 120.101562 174.921875 " fill-opacity="1" fill-rule="nonzero"/><path fill="rgb(100%, 79.998779%, 1.959229%)" d="M 147.214844 168.386719 C 148.097656 167.621094 148.085938 166.527344 147.195312 165.949219 L 137.527344 159.675781 C 136.632812 159.09375 135.191406 159.242188 134.308594 160.007812 L 124.671875 168.015625 C 124.0625 168.542969 123.878906 169.230469 124.117188 169.792969 C 124.226562 170.042969 124.417969 170.273438 124.691406 170.453125 L 134.363281 176.730469 C 135.253906 177.308594 136.695312 177.160156 137.578125 176.394531 L 144.484375 170.652344 L 147.214844 168.386719 " fill-opacity="1" fill-rule="nonzero"/><path fill="rgb(100%, 79.998779%, 1.959229%)" d="M 164.59375 176.394531 L 157.28125 171.648438 L 154.921875 170.117188 C 154.03125 169.539062 152.589844 169.6875 151.707031 170.453125 L 150.847656 171.167969 L 142.066406 178.460938 C 141.1875 179.226562 141.199219 180.316406 142.089844 180.898438 L 151.761719 187.171875 C 152.652344 187.753906 154.09375 187.601562 154.972656 186.835938 L 164.613281 178.832031 C 165.496094 178.066406 165.484375 176.972656 164.59375 176.394531 " fill-opacity="1" fill-rule="nonzero"/><path fill="rgb(100%, 79.998779%, 1.959229%)" d="M 180.828125 186.835938 L 171.160156 180.558594 C 170.265625 179.980469 168.824219 180.132812 167.945312 180.894531 L 158.304688 188.902344 C 157.425781 189.667969 157.433594 190.761719 158.328125 191.339844 L 167.996094 197.617188 C 168.886719 198.195312 170.332031 198.046875 171.210938 197.28125 L 180.851562 189.273438 C 181.730469 188.507812 181.71875 187.414062 180.828125 186.835938 " fill-opacity="1" fill-rule="nonzero"/></svg>